<mxfile host="app.diagrams.net" agent="Mozilla/5.0 (X11; Linux x86_64; rv:130.0) Gecko/20100101 Firefox/130.0" version="24.8.3">
  <diagram name="Page-1" id="8_mZIyjZI08FeJHfmGLs">
    <mxGraphModel dx="1434" dy="781" grid="1" gridSize="10" guides="1" tooltips="1" connect="1" arrows="1" fold="1" page="1" pageScale="1" pageWidth="850" pageHeight="1100" math="0" shadow="0">
      <root>
        <mxCell id="0" />
        <mxCell id="1" parent="0" />
        <mxCell id="JD9gztBmQUB86aCGU3QY-1" value="" style="ellipse;whiteSpace=wrap;html=1;aspect=fixed;strokeColor=default;" vertex="1" parent="1">
          <mxGeometry x="40" y="320" width="80" height="80" as="geometry" />
        </mxCell>
        <mxCell id="JD9gztBmQUB86aCGU3QY-3" value="&lt;p style=&quot;line-height: 100%; font-size: 25px;&quot;&gt;&lt;font style=&quot;font-size: 25px;&quot;&gt;0&lt;/font&gt;&lt;br&gt;&lt;/p&gt;" style="text;strokeColor=none;align=center;fillColor=none;html=1;verticalAlign=middle;whiteSpace=wrap;rounded=0;" vertex="1" parent="1">
          <mxGeometry x="50" y="345" width="60" height="30" as="geometry" />
        </mxCell>
        <mxCell id="JD9gztBmQUB86aCGU3QY-4" value="" style="ellipse;whiteSpace=wrap;html=1;aspect=fixed;strokeColor=default;" vertex="1" parent="1">
          <mxGeometry x="480" y="320" width="80" height="80" as="geometry" />
        </mxCell>
        <mxCell id="JD9gztBmQUB86aCGU3QY-5" value="&lt;p style=&quot;line-height: 100%;&quot;&gt;&lt;font style=&quot;font-size: 25px;&quot;&gt;2&lt;/font&gt;&lt;/p&gt;" style="text;strokeColor=none;align=center;fillColor=none;html=1;verticalAlign=middle;whiteSpace=wrap;rounded=0;" vertex="1" parent="1">
          <mxGeometry x="490" y="345" width="60" height="30" as="geometry" />
        </mxCell>
        <mxCell id="JD9gztBmQUB86aCGU3QY-6" value="" style="ellipse;whiteSpace=wrap;html=1;aspect=fixed;strokeColor=default;" vertex="1" parent="1">
          <mxGeometry x="260" y="320" width="80" height="80" as="geometry" />
        </mxCell>
        <mxCell id="JD9gztBmQUB86aCGU3QY-7" value="&lt;font style=&quot;font-size: 25px;&quot;&gt;1&lt;/font&gt;" style="text;strokeColor=none;align=center;fillColor=none;html=1;verticalAlign=middle;whiteSpace=wrap;rounded=0;" vertex="1" parent="1">
          <mxGeometry x="270" y="345" width="60" height="30" as="geometry" />
        </mxCell>
        <mxCell id="JD9gztBmQUB86aCGU3QY-8" value="" style="ellipse;whiteSpace=wrap;html=1;aspect=fixed;strokeColor=default;" vertex="1" parent="1">
          <mxGeometry x="700" y="320" width="80" height="80" as="geometry" />
        </mxCell>
        <mxCell id="JD9gztBmQUB86aCGU3QY-9" value="&lt;p style=&quot;line-height: 98%;&quot;&gt;&lt;font style=&quot;font-size: 25px;&quot;&gt;3&lt;/font&gt;&lt;/p&gt;" style="text;strokeColor=none;align=center;fillColor=none;html=1;verticalAlign=middle;whiteSpace=wrap;rounded=0;" vertex="1" parent="1">
          <mxGeometry x="710" y="345" width="60" height="30" as="geometry" />
        </mxCell>
        <mxCell id="JD9gztBmQUB86aCGU3QY-12" value="" style="endArrow=classic;html=1;rounded=0;exitX=1;exitY=0.5;exitDx=0;exitDy=0;entryX=0;entryY=0.5;entryDx=0;entryDy=0;" edge="1" parent="1" source="JD9gztBmQUB86aCGU3QY-1" target="JD9gztBmQUB86aCGU3QY-6">
          <mxGeometry width="50" height="50" relative="1" as="geometry">
            <mxPoint x="350" y="430" as="sourcePoint" />
            <mxPoint x="400" y="380" as="targetPoint" />
            <Array as="points" />
          </mxGeometry>
        </mxCell>
        <mxCell id="JD9gztBmQUB86aCGU3QY-13" value="&lt;font style=&quot;font-size: 20px;&quot;&gt;[&lt;font style=&quot;font-size: 20px;&quot;&gt;0-9]&lt;/font&gt;&lt;/font&gt;" style="text;strokeColor=none;align=center;fillColor=none;html=1;verticalAlign=middle;whiteSpace=wrap;rounded=0;" vertex="1" parent="1">
          <mxGeometry x="160" y="320" width="60" height="30" as="geometry" />
        </mxCell>
        <mxCell id="JD9gztBmQUB86aCGU3QY-14" value="" style="ellipse;whiteSpace=wrap;html=1;aspect=fixed;perimeterSpacing=0;fillColor=none;" vertex="1" parent="1">
          <mxGeometry x="267.5" y="327.5" width="65" height="65" as="geometry" />
        </mxCell>
        <mxCell id="JD9gztBmQUB86aCGU3QY-16" value="" style="curved=1;endArrow=classic;html=1;rounded=0;exitX=1;exitY=0;exitDx=0;exitDy=0;" edge="1" parent="1" source="JD9gztBmQUB86aCGU3QY-6" target="JD9gztBmQUB86aCGU3QY-6">
          <mxGeometry width="50" height="50" relative="1" as="geometry">
            <mxPoint x="360" y="310" as="sourcePoint" />
            <mxPoint x="240" y="280" as="targetPoint" />
            <Array as="points">
              <mxPoint x="360" y="260" />
              <mxPoint x="280" y="230" />
              <mxPoint x="250" y="250" />
              <mxPoint x="250" y="290" />
            </Array>
          </mxGeometry>
        </mxCell>
        <mxCell id="JD9gztBmQUB86aCGU3QY-17" value="&lt;font style=&quot;font-size: 20px;&quot;&gt;[&lt;font style=&quot;font-size: 20px;&quot;&gt;0-9]&lt;/font&gt;&lt;/font&gt;" style="text;strokeColor=none;align=center;fillColor=none;html=1;verticalAlign=middle;whiteSpace=wrap;rounded=0;" vertex="1" parent="1">
          <mxGeometry x="260" y="200" width="60" height="30" as="geometry" />
        </mxCell>
        <mxCell id="JD9gztBmQUB86aCGU3QY-18" value="" style="endArrow=classic;html=1;rounded=0;exitX=1;exitY=0.5;exitDx=0;exitDy=0;entryX=0;entryY=0.5;entryDx=0;entryDy=0;" edge="1" parent="1">
          <mxGeometry width="50" height="50" relative="1" as="geometry">
            <mxPoint x="340" y="359.5" as="sourcePoint" />
            <mxPoint x="480" y="359.5" as="targetPoint" />
            <Array as="points" />
          </mxGeometry>
        </mxCell>
        <mxCell id="JD9gztBmQUB86aCGU3QY-20" value="&lt;font style=&quot;font-size: 25px;&quot;&gt;.&lt;/font&gt;" style="text;strokeColor=none;align=center;fillColor=none;html=1;verticalAlign=middle;whiteSpace=wrap;rounded=0;" vertex="1" parent="1">
          <mxGeometry x="380" y="320" width="60" height="30" as="geometry" />
        </mxCell>
        <mxCell id="JD9gztBmQUB86aCGU3QY-21" value="" style="endArrow=classic;html=1;rounded=0;exitX=1;exitY=0.5;exitDx=0;exitDy=0;entryX=0;entryY=0.5;entryDx=0;entryDy=0;" edge="1" parent="1">
          <mxGeometry width="50" height="50" relative="1" as="geometry">
            <mxPoint x="560" y="362" as="sourcePoint" />
            <mxPoint x="700" y="362" as="targetPoint" />
            <Array as="points" />
          </mxGeometry>
        </mxCell>
        <mxCell id="JD9gztBmQUB86aCGU3QY-22" value="&lt;font style=&quot;font-size: 20px;&quot;&gt;[&lt;font style=&quot;font-size: 20px;&quot;&gt;0-9]&lt;/font&gt;&lt;/font&gt;" style="text;strokeColor=none;align=center;fillColor=none;html=1;verticalAlign=middle;whiteSpace=wrap;rounded=0;" vertex="1" parent="1">
          <mxGeometry x="600" y="320" width="60" height="30" as="geometry" />
        </mxCell>
        <mxCell id="JD9gztBmQUB86aCGU3QY-23" value="" style="curved=1;endArrow=classic;html=1;rounded=0;exitX=1;exitY=0;exitDx=0;exitDy=0;" edge="1" parent="1">
          <mxGeometry width="50" height="50" relative="1" as="geometry">
            <mxPoint x="768" y="332" as="sourcePoint" />
            <mxPoint x="717" y="327" as="targetPoint" />
            <Array as="points">
              <mxPoint x="800" y="260" />
              <mxPoint x="720" y="230" />
              <mxPoint x="690" y="250" />
              <mxPoint x="690" y="290" />
            </Array>
          </mxGeometry>
        </mxCell>
        <mxCell id="JD9gztBmQUB86aCGU3QY-25" value="&lt;font style=&quot;font-size: 20px;&quot;&gt;[&lt;font style=&quot;font-size: 20px;&quot;&gt;0-9]&lt;/font&gt;&lt;/font&gt;" style="text;strokeColor=none;align=center;fillColor=none;html=1;verticalAlign=middle;whiteSpace=wrap;rounded=0;" vertex="1" parent="1">
          <mxGeometry x="710" y="200" width="60" height="30" as="geometry" />
        </mxCell>
        <mxCell id="JD9gztBmQUB86aCGU3QY-27" value="" style="ellipse;whiteSpace=wrap;html=1;aspect=fixed;perimeterSpacing=0;fillColor=none;" vertex="1" parent="1">
          <mxGeometry x="707.5" y="327.5" width="65" height="65" as="geometry" />
        </mxCell>
      </root>
    </mxGraphModel>
  </diagram>
</mxfile>
